<?xml version="1.0" encoding="utf-8"?>
<!-- Generator: Adobe Illustrator 19.0.0, SVG Export Plug-In . SVG Version: 6.00 Build 0)  -->
<svg version="1.1" id="Layer_1" xmlns="http://www.w3.org/2000/svg" xmlns:xlink="http://www.w3.org/1999/xlink" x="0px" y="0px"
	 viewBox="-288 211 62.5 60" style="enable-background:new -288 211 62.5 60;" xml:space="preserve">
<style type="text/css">
	.st000{fill:none;stroke:#535353;stroke-width:7;stroke-miterlimit:10;}
	.st100{fill:#535353;}
</style>
<path id="XMLID_1_" class="st000" d="M-240.9,266.4h-30.6c-5.6,0-10.1-4.5-10.1-10.1v-30.7c0-5.6,4.5-10.1,10.1-10.1h30.6
	c5.6,0,10.1,4.5,10.1,10.1v30.6C-230.7,261.8-235.3,266.4-240.9,266.4z"/>
<path class="st100" d="M-247.1,255.1l-24.3-24.3c-1.4-1.4-1.4-3.7,0-5l0,0c1.4-1.4,3.7-1.4,5,0l24.3,24.3c1.4,1.4,1.4,3.7,0,5v0
	C-243.5,256.4-245.7,256.4-247.1,255.1z"/>
<path class="st100" d="M-242.1,230.8l-24.3,24.3c-1.4,1.4-3.7,1.4-5,0v0c-1.4-1.4-1.4-3.7,0-5l24.3-24.3c1.4-1.4,3.7-1.4,5,0l0,0
	C-240.7,227.1-240.7,229.4-242.1,230.8z"/>
</svg>
