<?xml version="1.0" encoding="utf-8"?>
<!-- Generator: Adobe Illustrator 19.0.0, SVG Export Plug-In . SVG Version: 6.00 Build 0)  -->
<svg version="1.1" id="Layer_1" xmlns="http://www.w3.org/2000/svg" xmlns:xlink="http://www.w3.org/1999/xlink" x="0px" y="0px"
	 viewBox="-288 211 62.5 60" style="enable-background:new -288 211 62.5 60;" xml:space="preserve">
<style type="text/css">
	.st0{fill:#333333;}
	.st1{fill:none;stroke:#333333;stroke-width:4;stroke-miterlimit:10;}
</style>
<path class="st0" d="M-243.5,227.7L-243.5,227.7c1.1,1.1,1.1,2.8,0,3.9l-22.7,22.7c-1.1,1.1-2.8,1.1-3.9,0h0c-1.1-1.1-1.1-2.8,0-3.9
	l22.7-22.7C-246.3,226.6-244.5,226.6-243.5,227.7z"/>
<path class="st0" d="M-270,227.7L-270,227.7c1.1-1.1,2.8-1.1,3.9,0l22.7,22.7c1.1,1.1,1.1,2.8,0,3.9l0,0c-1.1,1.1-2.8,1.1-3.9,0
	l-22.7-22.7C-271.1,230.5-271.1,228.8-270,227.7z"/>
<circle class="st1" cx="-256.8" cy="241" r="27.1"/>
</svg>
