<?xml version="1.0" encoding="utf-8"?>
<!-- Generator: Adobe Illustrator 19.0.0, SVG Export Plug-In . SVG Version: 6.00 Build 0)  -->
<svg version="1.1" id="Layer_1" xmlns="http://www.w3.org/2000/svg" xmlns:xlink="http://www.w3.org/1999/xlink" x="0px" y="0px"
	 viewBox="-213 111.3 756 231.7" style="enable-background:new -213 111.3 756 231.7;" xml:space="preserve">
<style type="text/css">
	.st0{fill:#FFFFFF;stroke:#000000;stroke-width:15;stroke-miterlimit:10;}
	.st1{fill:#FFFFFF;}
	.st2{fill:#00A393;}
	.st3{fill:none;stroke:#000000;stroke-width:5;stroke-miterlimit:10;}
	.st4{fill:#46BE2B;}
	.st5{fill:none;stroke:#000000;stroke-width:3;stroke-miterlimit:10;}
</style>
<path id="XMLID_2_" class="st0" d="M1512.4,416.9h-39.9c-5.9,0-10.7-4.8-10.7-10.7v-90.8c0-5.9,4.8-10.7,10.7-10.7h39.9
	c5.9,0,10.7,4.8,10.7,10.7v90.8C1523.1,412,1518.3,416.9,1512.4,416.9z"/>
<path id="XMLID_3_" class="st0" d="M1597.4,362.3h-41.7c-5.2,0-9.4-4.2-9.4-9.4v-37.6c0-5.2,4.2-9.4,9.4-9.4h41.7
	c5.2,0,9.4,4.2,9.4,9.4v37.6C1606.8,358,1602.6,362.3,1597.4,362.3z"/>
<path id="XMLID_7_" d="M1553.7,355.5v59.9c0,4.1-3.3,7.4-7.4,7.4l0,0c-4.1,0-7.4-3.3-7.4-7.4v-59.9c0-4.1,3.3-7.4,7.4-7.4l0,0
	C1550.4,348.3,1553.7,351.5,1553.7,355.5z"/>
<path id="XMLID_18_" d="M1582,422.9L1582,422.9c-4.1,0-7.4-3.5-7.4-7.9v-44.8c0-4.4,3.3-7.9,7.4-7.9l0,0c4.1,0,7.4,3.5,7.4,7.9V415"
	/>
<path id="XMLID_8_" d="M1581.4,409.4h24.7c3.7,0,6.7,3,6.7,6.7l0,0c0,3.7-3,6.7-6.7,6.7h-24.7c-3.7,0-6.7-3-6.7-6.7l0,0
	C1574.7,412.4,1577.7,409.4,1581.4,409.4z"/>
<path id="XMLID_35_" d="M174.5,232.3v57c0,3-2.5,5.5-5.5,5.5h-2c-3,0-5.5-2.5-5.5-5.5v-43c0-3-2.5-5.5-5.5-5.5h-15
	c-3,0-5.5,2.5-5.5,5.5v43c0,3-2.5,5.5-5.5,5.5l0,0c-3,0-5.5-2.5-5.5-5.5v-97c0-3,2.5-5.5,5.5-5.5l0,0c3,0,5.5,2.5,5.5,5.5v29
	c0,3,2.5,5.5,5.5,5.5h28C172,226.8,174.5,229.3,174.5,232.3z"/>
<path id="XMLID_41_" d="M200.6,234.4v56c0,3.6,2.9,6.5,6.5,6.5h37c3.6,0,6.5-2.9,6.5-6.5l0,0c0-3.6-2.9-6.5-6.5-6.5h-25
	c-3.6,0-6.5-2.9-6.5-6.5v-2c0-3.6,2.9-6.5,6.5-6.5h25c3.6,0,6.5-2.9,6.5-6.5v-28c0-3.6-2.9-6.5-6.5-6.5h-37
	C203.5,227.9,200.6,230.9,200.6,234.4z M232.1,256h-13c-3.6,0-6.5-2.9-6.5-6.5v-1c0-3.6,2.9-6.5,6.5-6.5h13c3.6,0,6.5,2.9,6.5,6.5v1
	C238.6,253.1,235.7,256,232.1,256z"/>
<path id="XMLID_17_" d="M69.1,283h25c3.6,0,6.5,2.9,6.5,6.5l0,0c0,3.6-2.9,6.5-6.5,6.5H62.6l0,0h-6.5c-3.6,0-6.5-2.9-6.5-6.5v-56
	c0-3.6,2.9-6.5,6.5-6.5h38c3.6,0,6.5,2.9,6.5,6.5v1c0,3.6-2.9,6.5-6.5,6.5h-25c-3.6,0-6.5,2.9-6.5,6.5v29
	C62.6,280,65.5,283,69.1,283z"/>
<path id="XMLID_16_" d="M298.1,284h24c3.6,0,6.5,2.9,6.5,6.5l0,0c0,3.6-2.9,6.5-6.5,6.5h-30.6l0,0h-6.4c-3.6,0-6.5-2.9-6.5-6.5v-56
	c0-3.6,2.9-6.5,6.5-6.5h37c3.6,0,6.5,2.9,6.5,6.5v1c0,3.6-2.9,6.5-6.5,6.5h-24c-3.6,0-6.5,2.9-6.5,6.5v29
	C291.6,281,294.5,284,298.1,284z"/>
<path id="XMLID_53_" d="M479,231c-1.3,2.1-3.6,3.3-5.9,3.3c-1.3,0-2.5-0.4-3.7-1.1l-1.7-1.1c-3.1-2-7.2-1-8.9,2.2l-13.8,25
	c-1.1,2-1,4.4,0.1,6.3c0,0-24.8,13.6-13.5-9.6l18.3-33.1c1.8-3.2,8.4-12.2,20.5-5.1l6.4,4.2C480,223.7,480.9,227.8,479,231z"/>
<rect id="XMLID_38_" x="236.2" y="286.5" class="st1" width="0" height="13"/>
<path id="XMLID_11_" d="M1517.6,411.4h13.8c3.8,0,6.8,3.1,6.8,6.8v13.4c0,3.8-3.1,6.8-6.8,6.8h-13.8c-3.8,0-6.8-3.1-6.8-6.8v-13.4
	C1510.8,414.5,1513.8,411.4,1517.6,411.4z"/>
<path id="XMLID_5_" d="M1583.6,345.9h-13.9c-3.2,0-5.8-2.6-5.8-5.8v-13.9c0-3.2,2.6-5.8,5.8-5.8h13.9c3.2,0,5.8,2.6,5.8,5.8V340
	C1589.4,343.3,1586.8,345.9,1583.6,345.9z"/>
<path id="XMLID_6_" d="M1510.9,411.1h-12.2c-3.7,0-6.6-3-6.6-6.6v-12.2c0-3.7,3-6.6,6.6-6.6h12.2c3.7,0,6.6,3,6.6,6.6v12.2
	C1517.5,408.3,1514.5,411.1,1510.9,411.1z"/>
<text id="XMLID_13_" transform="matrix(1 0 0 1 1242.6232 972.263)" style="font-family:'MicrosoftSansSerif'; font-size:110px;">check</text>
<path id="XMLID_12_" d="M1632,869.8c0,0-27.5,84.6-69.2,103.7c0,0-10.2-4.2-21.6-16.2c-14-14.8,4.9-33.9,4.9-33.9s20.9-22,31.8,4.7
	c0,0-10.1-14.5-26.1,1.4c-8,8-7.6,14.2-5.3,18.5c2.6,4.8,8.1,7.3,13.5,6.6c2.8-0.4,6.1-1.3,8.7-3.3
	C1579.5,943.3,1624.2,893.4,1632,869.8z"/>
<text id="XMLID_4_" transform="matrix(1 0 0 1 1071.9884 972.263)" style="font-family:'MicrosoftSansSerif'; font-size:110px;">QR</text>
<path id="XMLID_44_" d="M391.7,260c-1,1.9-1,4.2,0.1,6l12.8,21.9v1c0,3.3-2.7,6-6,6h-6l-12.3-22.8c-1-2-3.1-3.2-5.3-3.2h-2.4
	c-3.3,0-6,2.7-6,6v16c0,3.3-2.7,6-6,6l0,0c-3.3,0-6-2.7-6-6v-97c0-3.3,2.7-6,6-6l0,0c3.3,0,6,2.7,6,6v56c0,3.3,2.7,6,6,6h2.4
	c2.2,0,4.3-1.2,5.3-3.2l12.4-23.5l5.9-0.3c3.3,0,6,2.7,6,6v1L391.7,260z"/>
<path id="XMLID_15_" class="st2" d="M462.8,294.1l-31.6-23.4c-2.6-2-3.3-5.6-1.6-8.4l0,0c2-3.1,6.1-3.8,9-1.7l31.7,23.5
	c2.6,2,3.3,5.6,1.6,8.4l0,0C469.9,295.5,465.8,296.3,462.8,294.1z"/>
<path id="XMLID_10_" class="st2" d="M524.9,208.4l-6.1,8c-15.9,20.9-29.9,43.1-41.8,66.5l-4.6,9c-1.6,3-5.3,4.3-8.3,2.7l-0.2-0.1
	c-3.1-1.6-4.3-5.3-2.7-8.3l4.8-9.4c12.2-23.8,26.5-46.4,42.7-67.7l6.3-8.3c1.8-2.4,5.1-3.1,7.7-1.8l0,0
	C526.2,200.8,527.2,205.3,524.9,208.4z"/>
<path id="XMLID_1_" class="st3" d="M-8.9,335.8h-161.9c-14.4,0-26.1-11.7-26.1-26.1V147.7c0-14.4,11.7-26.1,26.1-26.1h162
	c14.4,0,26.1,11.7,26.1,26.1v162C17.2,324.1,5.5,335.8-8.9,335.8z"/>
<rect id="XMLID_46_" x="1452.7" y="502.1" class="st0" width="61.4" height="112.2"/>
<rect id="XMLID_45_" x="1537.4" y="502.5" class="st0" width="60.5" height="56.4"/>
<rect id="XMLID_43_" x="1569" y="563.8" width="11.4" height="56.6"/>
<rect id="XMLID_42_" x="1529.9" y="564" width="14.7" height="56.6"/>
<rect id="XMLID_37_" x="1565.6" y="563.8" width="14.7" height="56.6"/>
<rect id="XMLID_36_" x="1580.4" y="607" width="23.5" height="13.5"/>
<polygon id="XMLID_34_" points="1752,544.8 1752,612.8 1739,612.8 1739,558.8 1713,558.8 1713,612.8 1702,612.8 1702,504.8 
	1713,504.8 1713,544.8 "/>
<path id="XMLID_31_" d="M1762,545.8v69h50v-13h-38v-15h38v-41H1762z M1800,573.8h-26v-14h26V573.8z"/>
<polygon id="XMLID_30_" points="1652,600.8 1690,600.8 1690,613.8 1652,613.8 1652,613.8 1639,613.8 1639,544.8 1690,544.8 
	1690,558.8 1652,558.8 "/>
<polygon id="XMLID_29_" points="1837,602.8 1874,602.8 1874,615.8 1836.9,615.8 1836.9,615.8 1824,615.8 1824,546.8 1874,546.8 
	1874,560.8 1837,560.8 "/>
<polygon id="XMLID_28_" points="1956.2,590 1988,612.2 1981.5,622.8 1949.8,600.8 1949.8,600.8 1938.9,593.2 1973.5,535.3 
	2016.1,565.2 2009.1,577 1977.4,554.8 "/>
<rect id="XMLID_27_" x="1656.6" y="604.3" class="st1" width="0" height="13"/>
<rect id="XMLID_26_" x="1506.8" y="620.5" width="23.5" height="13.6"/>
<rect id="XMLID_25_" x="1554.9" y="518" width="25.4" height="25.4"/>
<rect id="XMLID_24_" x="1483" y="583.3" width="25.4" height="25.4"/>
<rect id="XMLID_67_" x="-175.3" y="160.8" class="st0" width="72.3" height="132"/>
<rect id="XMLID_66_" x="-75.6" y="161.2" class="st0" width="71.2" height="66.4"/>
<rect id="XMLID_65_" x="-38.5" y="233.4" width="13.4" height="66.6"/>
<rect id="XMLID_64_" x="-82.4" y="233.5" width="17.3" height="66.6"/>
<rect id="XMLID_63_" x="-42.4" y="233.4" width="17.3" height="66.6"/>
<rect id="XMLID_62_" x="-25.1" y="284.1" width="27.7" height="15.9"/>
<rect id="XMLID_60_" x="-55" y="179.3" width="29.9" height="29.9"/>
<rect id="XMLID_59_" x="-114.5" y="300.1" width="29.9" height="23.1"/>
<rect id="XMLID_61_" x="-139.2" y="255.4" width="29.9" height="29.9"/>
<polygon id="XMLID_23_" points="1932.3,553.8 1917.5,581 1932.4,605.8 1932,605.8 1932,612.8 1920,612.8 1920,613.2 1920.1,613.3 
	1906,586.8 1894,586.8 1894,614.8 1882,614.8 1882,505.8 1894,505.8 1894,573.8 1906,573.8 1920.1,547 1920,546.8 1920,546.8 
	1932,546.8 1932,553.8 "/>
<polygon id="XMLID_22_" class="st4" points="1981.5,622.8 1970.6,615.3 2025.2,524.3 2036.1,531.8 "/>
<polygon id="XMLID_20_" class="st4" points="1981.5,622.8 1938.8,593.2 1945.3,582.5 1987.9,612.2 "/>
<path id="XMLID_19_" class="st5" d="M1604.2,453.8h-137.7c-12.2,0-22.2-9.9-22.2-22.2V294c0-12.2,9.9-22.2,22.2-22.2h137.7
	c12.2,0,22.2,9.9,22.2,22.2v137.7C1626.3,443.8,1616.4,453.8,1604.2,453.8z"/>
</svg>
