<?xml version="1.0" encoding="utf-8"?>
<!-- Generator: Adobe Illustrator 19.0.0, SVG Export Plug-In . SVG Version: 6.00 Build 0)  -->
<svg version="1.1" id="Layer_1" xmlns="http://www.w3.org/2000/svg" xmlns:xlink="http://www.w3.org/1999/xlink" x="0px" y="0px"
	 viewBox="-288 211 62.5 60" style="enable-background:new -288 211 62.5 60;" xml:space="preserve">
<style type="text/css">
	.st0{fill:#00A393;}
</style>
<path class="st0" d="M-228.2,220.6L-228.2,220.6c1.6,1.6,1.6,4.3,0,5.9l-34.8,34.8c-1.6,1.6-4.3,1.6-5.9,0l0,0
	c-1.6-1.6-1.6-4.3,0-5.9l34.8-34.8C-232.5,219-229.9,219-228.2,220.6z"/>
<path class="st0" d="M-284.2,240.5L-284.2,240.5c1.6-1.6,4.3-1.6,5.9,0l14.9,14.9c1.6,1.6,1.6,4.3,0,5.9l0,0c-1.6,1.6-4.3,1.6-5.9,0
	l-14.9-14.9C-285.8,244.8-285.8,242.2-284.2,240.5z"/>
</svg>
