<?xml version="1.0" encoding="utf-8"?>
<!-- Generator: Adobe Illustrator 19.0.0, SVG Export Plug-In . SVG Version: 6.00 Build 0)  -->
<svg version="1.1" id="Layer_1" xmlns="http://www.w3.org/2000/svg" xmlns:xlink="http://www.w3.org/1999/xlink" x="0px" y="0px"
	 viewBox="-288 211 62.5 60" style="enable-background:new -288 211 62.5 60;" xml:space="preserve">
<style type="text/css">
	.st0{fill:#333333;}
</style>
<path class="st0" d="M-236.5,219.7L-236.5,219.7c1.6,1.6,1.6,4.3,0,5.9l-34.8,34.8c-1.6,1.6-4.3,1.6-5.9,0v0c-1.6-1.6-1.6-4.3,0-5.9
	l34.8-34.8C-240.8,218.1-238.1,218.1-236.5,219.7z"/>
<path class="st0" d="M-277.2,219.7L-277.2,219.7c1.6-1.6,4.3-1.6,5.9,0l34.8,34.8c1.6,1.6,1.6,4.3,0,5.9l0,0c-1.6,1.6-4.3,1.6-5.9,0
	l-34.8-34.8C-278.8,224-278.8,221.4-277.2,219.7z"/>
</svg>
