<?xml version="1.0" encoding="utf-8"?>
<!-- Generator: Adobe Illustrator 19.0.0, SVG Export Plug-In . SVG Version: 6.00 Build 0)  -->
<svg version="1.1" id="Layer_1" xmlns="http://www.w3.org/2000/svg" xmlns:xlink="http://www.w3.org/1999/xlink" x="0px" y="0px"
	 viewBox="58 242.3 448.6 98" style="enable-background:new 58 242.3 448.6 98;" xml:space="preserve">
<style type="text/css">
	.st0{fill:#FFFFFF;stroke:#000000;stroke-width:15;stroke-miterlimit:10;}
	.st1{fill:#FFFFFF;}
	.st2{fill:#00A393;}
	.st3{fill:none;stroke:#000000;stroke-width:5;stroke-miterlimit:10;}
	.st4{fill:#46BE2B;}
	.st5{fill:none;stroke:#000000;stroke-width:3;stroke-miterlimit:10;}
</style>
<path id="XMLID_2_" class="st0" d="M1570.4,542.2h-39.9c-5.9,0-10.7-4.8-10.7-10.7v-90.8c0-5.9,4.8-10.7,10.7-10.7h39.9
	c5.9,0,10.7,4.8,10.7,10.7v90.8C1581.1,537.3,1576.3,542.2,1570.4,542.2z"/>
<path id="XMLID_3_" class="st0" d="M1655.4,487.6h-41.7c-5.2,0-9.4-4.2-9.4-9.4v-37.6c0-5.2,4.2-9.4,9.4-9.4h41.7
	c5.2,0,9.4,4.2,9.4,9.4v37.6C1664.8,483.3,1660.6,487.6,1655.4,487.6z"/>
<path id="XMLID_7_" d="M1611.7,480.8v59.9c0,4.1-3.3,7.4-7.4,7.4l0,0c-4.1,0-7.4-3.3-7.4-7.4v-59.9c0-4.1,3.3-7.4,7.4-7.4l0,0
	C1608.4,473.6,1611.7,476.8,1611.7,480.8z"/>
<path id="XMLID_18_" d="M1640,548.2L1640,548.2c-4.1,0-7.4-3.5-7.4-7.9v-44.8c0-4.4,3.3-7.9,7.4-7.9l0,0c4.1,0,7.4,3.5,7.4,7.9v44.8
	"/>
<path id="XMLID_8_" d="M1639.4,534.7h24.7c3.7,0,6.7,3,6.7,6.7l0,0c0,3.7-3,6.7-6.7,6.7h-24.7c-3.7,0-6.7-3-6.7-6.7l0,0
	C1632.7,537.7,1635.7,534.7,1639.4,534.7z"/>
<path id="XMLID_35_" d="M1867.9,188.1v57c0,3-2.5,5.5-5.5,5.5h-2c-3,0-5.5-2.5-5.5-5.5v-43c0-3-2.5-5.5-5.5-5.5h-15
	c-3,0-5.5,2.5-5.5,5.5v43c0,3-2.5,5.5-5.5,5.5l0,0c-3,0-5.5-2.5-5.5-5.5v-97c0-3,2.5-5.5,5.5-5.5l0,0c3,0,5.5,2.5,5.5,5.5v29
	c0,3,2.5,5.5,5.5,5.5h28C1865.4,182.6,1867.9,185.1,1867.9,188.1z"/>
<path id="XMLID_41_" d="M1894,190.2v56c0,3.6,2.9,6.5,6.5,6.5h37c3.6,0,6.5-2.9,6.5-6.5l0,0c0-3.6-2.9-6.5-6.5-6.5h-25
	c-3.6,0-6.5-2.9-6.5-6.5v-2c0-3.6,2.9-6.5,6.5-6.5h25c3.6,0,6.5-2.9,6.5-6.5v-28c0-3.6-2.9-6.5-6.5-6.5h-37
	C1896.9,183.7,1894,186.7,1894,190.2z M1925.5,211.8h-13c-3.6,0-6.5-2.9-6.5-6.5v-1c0-3.6,2.9-6.5,6.5-6.5h13c3.6,0,6.5,2.9,6.5,6.5
	v1C1932,208.9,1929.1,211.8,1925.5,211.8z"/>
<path id="XMLID_17_" d="M1762.5,238.8h25c3.6,0,6.5,2.9,6.5,6.5l0,0c0,3.6-2.9,6.5-6.5,6.5H1756l0,0h-6.5c-3.6,0-6.5-2.9-6.5-6.5
	v-56c0-3.6,2.9-6.5,6.5-6.5h38c3.6,0,6.5,2.9,6.5,6.5v1c0,3.6-2.9,6.5-6.5,6.5h-25c-3.6,0-6.5,2.9-6.5,6.5v29
	C1756,235.8,1758.9,238.8,1762.5,238.8z"/>
<path id="XMLID_16_" d="M1991.5,239.8h24c3.6,0,6.5,2.9,6.5,6.5l0,0c0,3.6-2.9,6.5-6.5,6.5h-30.6l0,0h-6.4c-3.6,0-6.5-2.9-6.5-6.5
	v-56c0-3.6,2.9-6.5,6.5-6.5h37c3.6,0,6.5,2.9,6.5,6.5v1c0,3.6-2.9,6.5-6.5,6.5h-24c-3.6,0-6.5,2.9-6.5,6.5v29
	C1985,236.8,1987.9,239.8,1991.5,239.8z"/>
<path id="XMLID_53_" d="M2172.4,186.8c-1.3,2.1-3.6,3.3-5.9,3.3c-1.3,0-2.5-0.4-3.7-1.1l-1.7-1.1c-3.1-2-7.2-1-8.9,2.2l-13.8,25
	c-1.1,2-1,4.4,0.1,6.3c0,0-24.8,13.6-13.5-9.6l18.3-33.1c1.8-3.2,8.4-12.2,20.5-5.1l6.4,4.2C2173.4,179.5,2174.3,183.6,2172.4,186.8
	z"/>
<rect id="XMLID_38_" x="1929.6" y="242.3" class="st1" width="0" height="13"/>
<path id="XMLID_11_" d="M1575.6,536.7h13.8c3.8,0,6.8,3.1,6.8,6.8v13.4c0,3.8-3.1,6.8-6.8,6.8h-13.8c-3.8,0-6.8-3.1-6.8-6.8v-13.4
	C1568.8,539.8,1571.8,536.7,1575.6,536.7z"/>
<path id="XMLID_5_" d="M1641.6,471.2h-13.9c-3.2,0-5.8-2.6-5.8-5.8v-13.9c0-3.2,2.6-5.8,5.8-5.8h13.9c3.2,0,5.8,2.6,5.8,5.8v13.8
	C1647.4,468.6,1644.8,471.2,1641.6,471.2z"/>
<path id="XMLID_6_" d="M1568.9,536.4h-12.2c-3.7,0-6.6-3-6.6-6.6v-12.2c0-3.7,3-6.6,6.6-6.6h12.2c3.7,0,6.6,3,6.6,6.6v12.2
	C1575.5,533.6,1572.5,536.4,1568.9,536.4z"/>
<text id="XMLID_13_" transform="matrix(1 0 0 1 1300.6232 1097.563)" style="font-family:'MicrosoftSansSerif'; font-size:110px;">check</text>
<path id="XMLID_12_" d="M1690,995.1c0,0-27.5,84.6-69.2,103.7c0,0-10.2-4.2-21.6-16.2c-14-14.8,4.9-33.9,4.9-33.9s20.9-22,31.8,4.7
	c0,0-10.1-14.5-26.1,1.4c-8,8-7.6,14.2-5.3,18.5c2.6,4.8,8.1,7.3,13.5,6.6c2.8-0.4,6.1-1.3,8.7-3.3
	C1637.5,1068.6,1682.2,1018.7,1690,995.1z"/>
<text id="XMLID_4_" transform="matrix(1 0 0 1 1129.9884 1097.563)" style="font-family:'MicrosoftSansSerif'; font-size:110px;">QR</text>
<path id="XMLID_44_" d="M2085.1,215.8c-1,1.9-1,4.2,0.1,6l12.8,21.9v1c0,3.3-2.7,6-6,6h-6l-12.3-22.8c-1-2-3.1-3.2-5.3-3.2h-2.4
	c-3.3,0-6,2.7-6,6v16c0,3.3-2.7,6-6,6l0,0c-3.3,0-6-2.7-6-6v-97c0-3.3,2.7-6,6-6l0,0c3.3,0,6,2.7,6,6v56c0,3.3,2.7,6,6,6h2.4
	c2.2,0,4.3-1.2,5.3-3.2l12.4-23.5l5.9-0.3c3.3,0,6,2.7,6,6v1L2085.1,215.8z"/>
<path id="XMLID_15_" class="st2" d="M2156.2,249.9l-31.6-23.4c-2.6-2-3.3-5.6-1.6-8.4l0,0c2-3.1,6.1-3.8,9-1.7l31.7,23.5
	c2.6,2,3.3,5.6,1.6,8.4l0,0C2163.3,251.3,2159.2,252.1,2156.2,249.9z"/>
<path id="XMLID_10_" class="st2" d="M2218.3,164.2l-6.1,8c-15.9,20.9-29.9,43.1-41.8,66.5l-4.6,9c-1.6,3-5.3,4.3-8.3,2.7l-0.2-0.1
	c-3.1-1.6-4.3-5.3-2.7-8.3l4.8-9.4c12.2-23.8,26.5-46.4,42.7-67.7l6.3-8.3c1.8-2.4,5.1-3.1,7.7-1.8l0,0
	C2219.6,156.6,2220.6,161.1,2218.3,164.2z"/>
<path id="XMLID_1_" class="st3" d="M1684.5,291.6h-161.9c-14.4,0-26.1-11.7-26.1-26.1v-162c0-14.4,11.7-26.1,26.1-26.1h162
	c14.4,0,26.1,11.7,26.1,26.1v162C1710.6,279.9,1698.9,291.6,1684.5,291.6z"/>
<rect id="XMLID_46_" x="1510.7" y="627.4" class="st0" width="61.4" height="112.2"/>
<rect id="XMLID_45_" x="1595.4" y="627.8" class="st0" width="60.5" height="56.4"/>
<rect id="XMLID_43_" x="1627" y="689.1" width="11.4" height="56.6"/>
<rect id="XMLID_42_" x="1587.9" y="689.3" width="14.7" height="56.6"/>
<rect id="XMLID_37_" x="1623.6" y="689.1" width="14.7" height="56.6"/>
<rect id="XMLID_36_" x="1638.4" y="732.3" width="23.5" height="13.5"/>
<polygon id="XMLID_34_" points="1810,670.1 1810,738.1 1797,738.1 1797,684.1 1771,684.1 1771,738.1 1760,738.1 1760,630.1 
	1771,630.1 1771,670.1 "/>
<path id="XMLID_31_" d="M1820,671.1v69h50v-13h-38v-15h38v-41H1820z M1858,699.1h-26v-14h26V699.1z"/>
<polygon id="XMLID_30_" points="1710,726.1 1748,726.1 1748,739.1 1710,739.1 1710,739.1 1697,739.1 1697,670.1 1748,670.1 
	1748,684.1 1710,684.1 "/>
<polygon id="XMLID_29_" points="1895,728.1 1932,728.1 1932,741.1 1894.9,741.1 1894.9,741.1 1882,741.1 1882,672.1 1932,672.1 
	1932,686.1 1895,686.1 "/>
<polygon id="XMLID_28_" points="2014.2,715.3 2046,737.5 2039.5,748.1 2007.8,726.1 2007.8,726.1 1996.9,718.5 2031.5,660.6 
	2074.1,690.5 2067.1,702.3 2035.4,680.1 "/>
<rect id="XMLID_27_" x="1714.6" y="729.6" class="st1" width="0" height="13"/>
<rect id="XMLID_26_" x="1564.8" y="745.8" width="23.5" height="13.6"/>
<rect id="XMLID_25_" x="1612.9" y="643.3" width="25.4" height="25.4"/>
<rect id="XMLID_24_" x="1541" y="708.6" width="25.4" height="25.4"/>
<rect id="XMLID_67_" x="1518.1" y="116.6" class="st0" width="72.3" height="132"/>
<rect id="XMLID_66_" x="1617.8" y="117" class="st0" width="71.2" height="66.4"/>
<rect id="XMLID_65_" x="1654.9" y="189.2" width="13.4" height="66.6"/>
<rect id="XMLID_64_" x="1611" y="189.3" width="17.3" height="66.6"/>
<rect id="XMLID_63_" x="1651" y="189.2" width="17.3" height="66.6"/>
<rect id="XMLID_62_" x="1668.3" y="239.9" width="27.7" height="15.9"/>
<rect id="XMLID_60_" x="1638.4" y="135.1" width="29.9" height="29.9"/>
<rect id="XMLID_59_" x="1578.9" y="255.9" width="29.9" height="23.1"/>
<rect id="XMLID_61_" x="1554.2" y="211.2" width="29.9" height="29.9"/>
<polygon id="XMLID_23_" points="1990.3,679.1 1975.5,706.3 1990.4,731.1 1990,731.1 1990,738.1 1978,738.1 1978,738.5 1978.1,738.6 
	1964,712.1 1952,712.1 1952,740.1 1940,740.1 1940,631.1 1952,631.1 1952,699.1 1964,699.1 1978.1,672.3 1978,672.1 1978,672.1 
	1990,672.1 1990,679.1 "/>
<polygon id="XMLID_22_" class="st4" points="2039.5,748.1 2028.6,740.6 2083.2,649.6 2094.1,657.1 "/>
<polygon id="XMLID_20_" class="st4" points="2039.5,748.1 1996.8,718.5 2003.3,707.8 2045.9,737.5 "/>
<path id="XMLID_19_" class="st5" d="M1662.2,579.1h-137.7c-12.2,0-22.2-9.9-22.2-22.2V419.3c0-12.2,9.9-22.2,22.2-22.2h137.7
	c12.2,0,22.2,9.9,22.2,22.2V557C1684.3,569.1,1674.4,579.1,1662.2,579.1z"/>
<rect x="61.3" y="245.4" class="st3" width="36.8" height="36.8"/>
<rect x="61.3" y="299.4" class="st3" width="36.8" height="36.8"/>
<rect x="118" y="245.4" class="st3" width="36.8" height="36.8"/>
<polygon class="st2" points="180.5,291.4 145.6,329.5 137.3,338.5 128.3,330.2 110,313.5 118.2,304.4 136.5,321.2 171.5,283.1 "/>
<rect x="70.3" y="253.9" width="18.8" height="18.8"/>
<g>
	<path class="st1" d="M195.8,319.3c0-20.2,0-40.4,0-60.6c102.8,0,205.6,0,308.4,0c0,20.2,0,40.4,0,60.6
		C401.4,319.3,298.6,319.3,195.8,319.3z M254.3,302.8c0-4.4,0-8.8,0-13.3c2.6,0,5,0.1,7.4,0c1.1,0,1.5,0.4,1.9,1.4
		c2.2,5.6,4.6,11.1,6.9,16.6c0.2,0.4,0.7,1,1,1c2.9,0.1,5.9,0,9,0c0-1.3,0-2.4,0-3.5c0.1-1-0.2-1.5-1.3-1.5c-1.7-0.1-2.7-1-3.3-2.6
		c-1.2-3.1-2.6-6-4-9c-0.5-1.2-1-2.3-1.5-3.5c0.8-0.4,1.4-0.7,2-1.1c4.5-2.7,6.4-6.9,6.1-12c-0.3-5-2.7-8.7-7.4-10.5
		c-2.6-1-5.4-1.5-8.1-1.6c-6.6-0.2-13.3-0.1-19.9-0.1c-0.5,0-1,0-1.5,0.1c0,1.7,0,3.2,0,4.7c1.2,0.2,2.3,0.6,3.4,0.7
		c1.3,0.1,1.5,0.7,1.5,1.8c0,10.3,0,20.6,0,30.9c0,0.5,0,1,0,1.5c-1.4,0.3-2.7,0.4-3.9,0.8c-0.4,0.1-1,0.6-1,1c-0.1,1.3,0,2.6,0,3.9
		c6,0,11.8,0,17.8,0c0-0.9-0.1-1.8,0-2.6c0.2-1.6-0.2-2.4-2-2.5C256.3,303.3,255.3,303,254.3,302.8z M229.3,305.1
		c3-2.4,5-5.4,6.1-8.9c2.1-6.5,2.2-13.1,0.3-19.6c-2.5-8.5-9.3-13.9-17.6-14.2c-9-0.3-16,4.5-19.2,13.1c-1.9,5.3-2.1,10.9-1.1,16.4
		c2.1,11.9,11.4,18.8,23,16.8c1.6-0.3,2.6,0.1,3.8,0.9c3.3,2.4,6.7,4.7,10.1,7.1c1.4-1.9,2.7-3.7,4-5.5
		C235.5,309.2,232.4,307.2,229.3,305.1z M464.3,303.9c-0.4-0.1-0.8-0.4-1.1-0.4c-2.6,0-4.2-1.4-5.7-3.5c-2.7-3.8-5.6-7.4-8.5-11.1
		c1.6-1.5,3.1-2.9,4.6-4.4c2.4-2.3,4.6-5.1,8.5-4.8c0-1.8,0-3.4,0-5c-5.4,0-10.7,0-16.1,0c0,1.1,0.1,2.2,0,3.2
		c-0.1,1.3,0.3,1.9,1.6,1.8c0.5,0,1.1,0.2,1.9,0.4c-3.6,3.4-6.9,6.5-10.5,10c0-5.4,0-10.4,0-15.3c0-4.9,0-9.9,0-14.9
		c-4.3,0-8.5,0-12.7,0c0,1.7,0,3.2,0,4.7c1.2,0.2,2.2,0.6,3.3,0.6c1.4,0.1,1.6,0.7,1.6,1.9c0,11.4,0,22.8,0,34.2c0,0.5,0,1,0,1.5
		c-1.3,0.3-2.5,0.4-3.6,0.7c-0.4,0.1-1,0.5-1,0.8c-0.1,1.4,0,2.7,0,4.1c5.8,0,11.3,0,16.8,0c0-1.3,0.1-2.5,0-3.7c0-0.4-0.5-1-1-1.1
		c-1.1-0.4-2.2-0.5-3.4-0.8c0-1-0.1-1.8,0-2.7c0.1-0.7,0-1.6,0.4-2.1c1.3-1.5,2.9-2.8,4.4-4.2c2.4,3.2,4.8,6.3,7.2,9.5
		c-1.1,0.2-1.9,0.4-2.8,0.6c0,1.6,0,3,0,4.5c5.4,0,10.7,0,16,0c0-0.3,0.1-0.6,0.1-0.8C464.3,306.4,464.3,305.2,464.3,303.9z
		 M335.1,308.5c0-0.6,0-1.1,0-1.6c0-3,0-3-3-3.7c-0.9-0.2-1.4-0.4-1.4-1.5c0.1-5.6,0-11.2,0-16.8c0-0.5,0.2-1.1,0.4-1.5
		c1.7-2.4,5.4-3.6,8.5-2.7c2.5,0.7,3.7,2.5,4,6c0,0.4,0,0.8,0,1.2c0,4.4,0,8.9,0,13.3c0,0.5,0,1.1,0,1.6c-1.6,0.4-3,0.7-4.3,1
		c0,1.7,0,3.2,0,4.7c5.6,0,11.1,0,16.8,0c0-1.2-0.1-2.2,0-3.3c0.1-1.1-0.3-1.5-1.4-1.7c-1.1-0.1-2.2-0.4-3.2-0.7
		c-0.1-0.3-0.1-0.4-0.1-0.5c0-5,0-10.1,0-15.1c0-3.5-0.5-7-3.1-9.8c-4-4.4-11.7-4.4-16.2,0c-0.4,0.4-0.9,0.8-1.5,1.3
		c0-0.7,0-1.2,0-1.7c0-5.1-0.1-10.2,0-15.3c0-1.5-0.3-2-1.9-1.9c-3.1,0.1-6.2,0-9.3,0c-0.5,0-1.1,0-1.6,0.1c0,1.7,0,3.2,0,4.8
		c1.2,0.2,2.2,0.6,3.3,0.6c1.3,0.1,1.6,0.6,1.6,1.9c0,11.4,0,22.8,0,34.2c0,0.5-0.1,1-0.1,1.5c-1.6,0.4-3.1,0.7-4.5,1
		c0,1.7,0,3.1,0,4.7C323.9,308.5,329.4,308.5,335.1,308.5z M490,308.4c3.9,0,7.6,0,11.4,0c0-1.6,0-3,0-4.6c-1.5-0.3-3.1-0.7-4.7-1.1
		c0-14.3,0-28.6,0-43c-2.9,0-5.8,0-8.6,0c-4.6,0-4.6,0-4.1,4.7c0,0,0,0.1,0.1,0.2c1.1,0.2,2.3,0.5,3.6,0.7c1,0.1,1.3,0.6,1.3,1.6
		c-0.1,2.7,0,5.4,0,8.1c0,1,0,2,0,2.8c-1.8-1.1-3.4-2.4-5.2-3.1c-5.8-2-11.5,0.6-14.4,6.3c-1.7,3.3-2.2,6.9-2.3,10.6
		c-0.1,4.2,0.5,8.3,2.7,12c4.3,7.2,14.9,7.2,18.9,1.7c0.1-0.2,0.4-0.3,0.7-0.5C489.6,306.1,489.8,307.2,490,308.4z M385.2,300.7
		c-2.6,0.8-4.9,1.8-7.3,2.3c-6,1.1-10.7-3.2-10.3-9.2c6.8,0,13.7,0,20.5,0c0-2.7,0.2-5.2-0.1-7.7c-0.6-4.9-2.7-8.9-7.6-10.9
		c-7.6-3-15.8-0.3-19.5,7.8c-1.6,3.5-1.9,7.3-1.5,11c0.6,6.8,3.6,12,10.3,14.2c2.3,0.8,5,0.8,7.5,0.8c3.3-0.1,6.5-1.2,9.2-3.2
		c0.3-0.3,0.7-1,0.5-1.4C386.5,303.1,385.7,301.8,385.2,300.7z M314.3,297.7c-2.1,0-4,0-5.9,0c-0.4,0-0.9,0.5-1,0.9
		c-1,2.7-2.9,4.3-5.8,4.5c-3,0.2-5.5-1-6.8-3.7c-2.3-5.1-2.3-10.4,0.1-15.5c1.4-3,4.5-4.3,7.8-3.9c2.7,0.4,3.8,1.4,4.3,4.1
		c0.2,0.9,0.3,1.9,0.6,2.8c0.1,0.4,0.5,0.9,0.8,0.9c1.7,0.1,3.5,0,5.3,0c0-2.7,0-5.2,0-7.7c0-0.9-0.3-1.6-1-2.2
		c-3.1-2.4-6.6-3.6-10.5-3.9c-7.5-0.6-13.8,3.6-15.9,10.7c-1.3,4.5-1.4,9.1,0,13.6c1.6,5.2,4.9,9,10.3,10.2c2.7,0.6,5.7,0.5,8.4,0.1
		C310.3,307.9,314.2,303,314.3,297.7z M421.7,287.9c0-2.7,0.1-5.2,0-7.8c0-0.7-0.4-1.5-0.9-2c-2.9-2.5-6.5-3.6-10.3-4
		c-7.2-0.7-13.6,3.2-15.9,10.1c-1.6,4.9-1.6,9.9-0.1,14.7c1.5,4.7,4.6,8,9.3,9.5c3.5,1.1,7,1.1,10.5,0c4.7-1.4,8.1-6,8.1-10.8
		c-2,0-4.1,0-6.1,0c-0.3,0-0.7,0.5-0.8,0.8c-1,2.9-3,4.4-6,4.6c-3.2,0.2-5.6-1.3-6.8-4.2c-2-4.8-2-9.8,0.1-14.6
		c1.4-3.2,4.3-4.7,7.8-4.3c2.7,0.3,4,1.4,4.5,4c0.2,1,0.3,2,0.6,2.9c0.1,0.4,0.6,0.9,0.9,0.9C418.2,287.9,419.8,287.9,421.7,287.9z"
		/>
	<path d="M254.3,302.8c1,0.2,1.9,0.6,2.9,0.6c1.8,0,2.2,0.9,2,2.5c-0.1,0.8,0,1.7,0,2.6c-6,0-11.8,0-17.8,0c0-1.4-0.1-2.6,0-3.9
		c0-0.4,0.6-0.9,1-1c1.2-0.3,2.5-0.5,3.9-0.8c0-0.6,0-1.1,0-1.5c0-10.3,0-20.6,0-30.9c0-1.1-0.2-1.8-1.5-1.8
		c-1.1-0.1-2.2-0.4-3.4-0.7c0-1.6,0-3.1,0-4.7c0.5,0,1-0.1,1.5-0.1c6.6,0,13.3-0.2,19.9,0.1c2.7,0.1,5.6,0.6,8.1,1.6
		c4.7,1.7,7.1,5.5,7.4,10.5c0.3,5.1-1.5,9.3-6.1,12c-0.6,0.4-1.2,0.7-2,1.1c0.5,1.2,1,2.3,1.5,3.5c1.3,3,2.8,6,4,9
		c0.6,1.7,1.6,2.6,3.3,2.6c1.1,0,1.3,0.6,1.3,1.5c-0.1,1.1,0,2.3,0,3.5c-3.1,0-6.1,0-9,0c-0.4,0-0.9-0.6-1-1
		c-2.3-5.5-4.6-11.1-6.9-16.6c-0.4-1-0.8-1.4-1.9-1.4c-2.4,0.1-4.9,0-7.4,0C254.3,294,254.3,298.3,254.3,302.8z M254.3,283.4
		c2.8,0,5.5,0,8.1,0c0.7,0,1.4,0,2.1-0.1c3.8-0.4,6-2.6,6.3-6.3c0.3-3.6-1.5-6.9-4.7-7.4c-3.8-0.6-7.8-0.5-11.8-0.7
		C254.3,274,254.3,278.6,254.3,283.4z"/>
	<path d="M229.3,305.1c3.2,2.1,6.2,4.1,9.4,6.2c-1.4,1.9-2.7,3.6-4,5.5c-3.4-2.4-6.8-4.7-10.1-7.1c-1.2-0.9-2.3-1.2-3.8-0.9
		c-11.7,1.9-21-4.9-23-16.8c-1-5.5-0.8-11.1,1.1-16.4c3.2-8.7,10.1-13.5,19.2-13.1c8.3,0.3,15.1,5.7,17.6,14.2
		c1.9,6.5,1.8,13.1-0.3,19.6C234.2,299.7,232.2,302.7,229.3,305.1z M229.5,285.7c-0.7-3.2-1-6.5-2-9.6c-1.7-4.9-5.5-7.5-10.4-7.5
		c-4.9,0-8.7,2.6-10.5,7.5c-2.3,6.5-2.3,13,0,19.5c1.8,5,5.6,7.5,10.7,7.4c5.1-0.1,8.8-2.7,10.3-7.7
		C228.6,292.2,228.9,289,229.5,285.7z"/>
	<path d="M464.3,303.9c0,1.3,0,2.5,0,3.7c0,0.2,0,0.5-0.1,0.8c-5.3,0-10.6,0-16,0c0-1.5,0-2.9,0-4.5c0.8-0.2,1.7-0.4,2.8-0.6
		c-2.4-3.2-4.7-6.3-7.2-9.5c-1.5,1.4-3.1,2.7-4.4,4.2c-0.4,0.5-0.4,1.4-0.4,2.1c-0.1,0.8,0,1.7,0,2.7c1.2,0.3,2.3,0.4,3.4,0.8
		c0.4,0.1,0.9,0.7,1,1.1c0.1,1.2,0,2.4,0,3.7c-5.6,0-11.1,0-16.8,0c0-1.3-0.1-2.7,0-4.1c0-0.3,0.6-0.7,1-0.8
		c1.1-0.3,2.2-0.5,3.6-0.7c0-0.5,0-1,0-1.5c0-11.4,0-22.8,0-34.2c0-1.2-0.2-1.8-1.6-1.9c-1.1,0-2.1-0.4-3.3-0.6c0-1.5,0-3.1,0-4.7
		c4.2,0,8.3,0,12.7,0c0,5,0,10,0,14.9c0,4.9,0,9.9,0,15.3c3.6-3.4,7-6.6,10.5-10c-0.8-0.2-1.3-0.4-1.9-0.4c-1.4,0.1-1.7-0.5-1.6-1.8
		c0.1-1,0-2.1,0-3.2c5.4,0,10.7,0,16.1,0c0,1.6,0,3.2,0,5c-3.9-0.2-6.1,2.5-8.5,4.8c-1.5,1.4-3,2.9-4.6,4.4
		c2.9,3.7,5.8,7.3,8.5,11.1c1.5,2,3.1,3.5,5.7,3.5C463.5,303.5,463.8,303.7,464.3,303.9z"/>
	<path d="M335.1,308.5c-5.7,0-11.2,0-16.8,0c0-1.5,0-3,0-4.7c1.4-0.3,2.9-0.6,4.5-1c0-0.5,0.1-1,0.1-1.5c0-11.4,0-22.8,0-34.2
		c0-1.3-0.3-1.8-1.6-1.9c-1.1-0.1-2.1-0.4-3.3-0.6c0-1.5,0-3.1,0-4.8c0.5,0,1.1-0.1,1.6-0.1c3.1,0,6.2,0.1,9.3,0
		c1.6-0.1,1.9,0.5,1.9,1.9c-0.1,5.1,0,10.2,0,15.3c0,0.5,0,1.1,0,1.7c0.6-0.6,1.1-0.9,1.5-1.3c4.5-4.4,12.2-4.4,16.2,0
		c2.5,2.8,3,6.2,3.1,9.8c0.1,5,0,10.1,0,15.1c0,0.1,0,0.2,0.1,0.5c1,0.2,2.1,0.5,3.2,0.7c1.1,0.1,1.4,0.6,1.4,1.7
		c-0.1,1.1,0,2.2,0,3.3c-5.7,0-11.2,0-16.8,0c0-1.5,0-3,0-4.7c1.3-0.3,2.7-0.6,4.3-1c0-0.5,0-1.1,0-1.6c0-4.4,0-8.9,0-13.3
		c0-0.4,0-0.8,0-1.2c-0.3-3.5-1.5-5.3-4-6c-3.1-0.9-6.8,0.3-8.5,2.7c-0.3,0.4-0.4,1-0.4,1.5c0,5.6,0,11.2,0,16.8
		c0,1.1,0.5,1.3,1.4,1.5c3,0.6,3,0.7,3,3.7C335.1,307.3,335.1,307.8,335.1,308.5z"/>
	<path d="M490,308.4c-0.2-1.2-0.4-2.4-0.6-3.6c-0.3,0.2-0.6,0.3-0.7,0.5c-4,5.5-14.6,5.4-18.9-1.7c-2.2-3.7-2.8-7.8-2.7-12
		c0.1-3.7,0.6-7.3,2.3-10.6c2.8-5.7,8.6-8.3,14.4-6.3c1.8,0.6,3.4,2,5.2,3.1c0-0.8,0-1.8,0-2.8c0-2.7,0-5.4,0-8.1
		c0-1-0.2-1.4-1.3-1.6c-1.2-0.1-2.4-0.5-3.6-0.7c-0.1-0.1-0.1-0.2-0.1-0.2c-0.5-4.7-0.5-4.7,4.1-4.7c2.8,0,5.7,0,8.6,0
		c0,14.4,0,28.7,0,43c1.6,0.4,3.1,0.7,4.7,1.1c0,1.6,0,3.1,0,4.6C497.6,308.4,493.9,308.4,490,308.4z M488.9,291.7
		c0-2.1,0-4.3,0-6.4c0-0.7-0.2-1.4-0.6-1.9c-1.7-2.4-4.1-3.3-6.9-3c-2.8,0.3-4.5,2.2-5.3,4.7c-1.4,4.1-1.5,8.3-0.5,12.4
		c1.1,4.3,4,6.1,8.4,5.4c3-0.5,4.9-2.8,4.9-5.8C488.9,295.3,488.9,293.5,488.9,291.7z"/>
	<path d="M385.2,300.7c0.5,1.1,1.3,2.4,1.8,3.8c0.1,0.3-0.2,1.1-0.5,1.4c-2.7,2-5.8,3.1-9.2,3.2c-2.5,0.1-5.2,0-7.5-0.8
		c-6.7-2.2-9.7-7.4-10.3-14.2c-0.3-3.8,0-7.5,1.5-11c3.6-8.2,11.9-10.8,19.5-7.8c4.8,1.9,7,6,7.6,10.9c0.3,2.5,0.1,5,0.1,7.7
		c-6.8,0-13.6,0-20.5,0c-0.4,6.1,4.3,10.4,10.3,9.2C380.3,302.6,382.6,301.6,385.2,300.7z M380.6,288.2c0.5-4.8-1.8-8-5.8-8.1
		c-4-0.2-7.2,3.5-7.1,8.1C372,288.2,376.2,288.2,380.6,288.2z"/>
	<path d="M314.3,297.7c-0.1,5.3-4,10.2-9.3,11c-2.8,0.4-5.7,0.5-8.4-0.1c-5.5-1.2-8.8-5-10.3-10.2c-1.3-4.5-1.3-9.1,0-13.6
		c2.1-7.1,8.5-11.3,15.9-10.7c3.9,0.3,7.4,1.5,10.5,3.9c0.7,0.6,1,1.2,1,2.2c-0.1,2.5,0,5,0,7.7c-1.8,0-3.5,0-5.3,0
		c-0.3,0-0.7-0.6-0.8-0.9c-0.3-0.9-0.4-1.9-0.6-2.8c-0.5-2.6-1.6-3.7-4.3-4.1c-3.3-0.5-6.3,0.8-7.8,3.9c-2.4,5.1-2.4,10.4-0.1,15.5
		c1.3,2.8,3.7,4,6.8,3.7c2.9-0.2,4.8-1.7,5.8-4.5c0.1-0.4,0.7-0.9,1-0.9C310.2,297.6,312.2,297.7,314.3,297.7z"/>
	<path d="M421.7,287.9c-1.8,0-3.5,0-5.2,0c-0.3,0-0.8-0.5-0.9-0.9c-0.3-1-0.4-2-0.6-2.9c-0.5-2.6-1.8-3.8-4.5-4
		c-3.5-0.3-6.4,1.1-7.8,4.3c-2,4.8-2,9.8-0.1,14.6c1.2,2.9,3.6,4.3,6.8,4.2c3-0.1,5-1.7,6-4.6c0.1-0.3,0.5-0.8,0.8-0.8
		c2-0.1,4.1,0,6.1,0c0.1,4.8-3.4,9.4-8.1,10.8c-3.5,1-7,1.1-10.5,0c-4.7-1.5-7.8-4.8-9.3-9.5c-1.6-4.9-1.6-9.9,0.1-14.7
		c2.3-6.9,8.7-10.8,15.9-10.1c3.8,0.4,7.3,1.5,10.3,4c0.5,0.4,0.9,1.3,0.9,2C421.7,282.6,421.7,285.2,421.7,287.9z"/>
	<path class="st1" d="M254.3,283.4c0-4.8,0-9.4,0-14.5c4,0.2,7.9,0.1,11.8,0.7c3.2,0.5,5,3.8,4.7,7.4c-0.3,3.6-2.5,5.9-6.3,6.3
		c-0.7,0.1-1.4,0.1-2.1,0.1C259.8,283.4,257.1,283.4,254.3,283.4z"/>
	<path class="st1" d="M229.5,285.7c-0.6,3.3-1,6.5-1.9,9.5c-1.6,5.1-5.2,7.6-10.3,7.7c-5,0.1-8.9-2.4-10.7-7.4
		c-2.3-6.5-2.4-13,0-19.5c1.8-4.9,5.6-7.5,10.5-7.5c4.9,0,8.8,2.5,10.4,7.5C228.5,279.2,228.9,282.5,229.5,285.7z"/>
	<path class="st1" d="M488.9,291.7c0,1.8,0,3.6,0,5.4c0,3-2,5.3-4.9,5.8c-4.4,0.7-7.4-1-8.4-5.4c-1-4.1-0.9-8.3,0.5-12.4
		c0.9-2.5,2.5-4.3,5.3-4.7c2.8-0.4,5.2,0.6,6.9,3c0.4,0.5,0.6,1.3,0.6,1.9C489,287.4,488.9,289.5,488.9,291.7z"/>
	<path class="st1" d="M380.6,288.2c-4.4,0-8.6,0-12.9,0c-0.1-4.6,3.1-8.3,7.1-8.1C378.8,280.2,381.1,283.3,380.6,288.2z"/>
</g>
</svg>
