<svg width="278" height="92" viewBox="0 0 278 92" fill="none" xmlns="http://www.w3.org/2000/svg">
<g clip-path="url(#clip0_2_52)">
<path d="M147.858 44.1348V69.7528C147.858 71.1011 146.731 72.2247 145.379 72.2247H144.477C143.125 72.2247 141.998 71.1011 141.998 69.7528V50.427C141.998 49.0786 140.871 47.9551 139.518 47.9551H132.757C131.404 47.9551 130.277 49.0786 130.277 50.427V69.7528C130.277 71.1011 129.15 72.2247 127.798 72.2247C126.446 72.2247 125.319 71.1011 125.319 69.7528V26.1573C125.319 24.809 126.446 23.6854 127.798 23.6854C129.15 23.6854 130.277 24.809 130.277 26.1573V39.191C130.277 40.5393 131.404 41.6629 132.757 41.6629H145.379C146.731 41.6629 147.858 42.7416 147.858 44.1348Z" fill="black"/>
<path d="M152.366 45.0337V70.2022C152.366 71.8202 153.673 73.1236 155.296 73.1236H171.975C173.598 73.1236 174.905 71.8202 174.905 70.2022C174.905 68.5843 173.598 67.2809 171.975 67.2809H160.705C159.083 67.2809 157.775 65.9775 157.775 64.3595V63.4607C157.775 61.8427 159.083 60.5393 160.705 60.5393H171.975C173.598 60.5393 174.905 59.2359 174.905 57.618V45.0337C174.905 43.4157 173.598 42.1124 171.975 42.1124H155.296C153.673 42.1124 152.366 43.4157 152.366 45.0337ZM166.566 54.6966H160.705C159.083 54.6966 157.775 53.3933 157.775 51.7753V51.3258C157.775 49.7079 159.083 48.4045 160.705 48.4045H166.566C168.188 48.4045 169.496 49.7079 169.496 51.3258V51.7753C169.496 53.3933 168.188 54.6966 166.566 54.6966Z" fill="black"/>
<path d="M105.709 66.8315H116.979C118.602 66.8315 119.909 68.1348 119.909 69.7528C119.909 71.3708 118.602 72.6741 116.979 72.6741H102.779H99.8492C98.2264 72.6741 96.9191 71.3708 96.9191 69.7528V44.5843C96.9191 42.9663 98.2264 41.6629 99.8492 41.6629H116.979C118.602 41.6629 119.909 42.9663 119.909 44.5843V45.0337C119.909 46.6517 118.602 47.9551 116.979 47.9551H105.709C104.087 47.9551 102.779 49.2584 102.779 50.8764V63.9101C102.779 65.5281 104.087 66.8315 105.709 66.8315Z" fill="black"/>
<path d="M189.105 67.7303H199.924C201.547 67.7303 202.854 69.0337 202.854 70.6517C202.854 72.2697 201.547 73.573 199.924 73.573H186.13H183.245C181.622 73.573 180.315 72.2697 180.315 70.6517V45.4832C180.315 43.8652 181.622 42.5618 183.245 42.5618H199.924C201.547 42.5618 202.854 43.8652 202.854 45.4832V45.9326C202.854 47.5506 201.547 48.8539 199.924 48.8539H189.105C187.482 48.8539 186.175 50.1573 186.175 51.7753V64.809C186.175 66.427 187.482 67.7303 189.105 67.7303Z" fill="black"/>
<path d="M253.252 44.6292C252.666 45.573 251.629 46.1124 250.592 46.1124C250.006 46.1124 249.465 45.9326 248.924 45.618L248.158 45.1236C246.76 44.2247 244.912 44.6742 244.146 46.1124L237.925 57.3483C237.429 58.2472 237.474 59.3258 237.97 60.1798L231.885 62.9213C229.586 60.1348 231.253 56.9438 231.885 55.8652L240.134 40.9888C240.945 39.5506 243.921 35.5056 249.375 38.6966L252.26 40.5843C253.703 41.3483 254.108 43.191 253.252 44.6292Z" fill="black"/>
<path d="M223.184 56.5393C222.734 57.3933 222.734 58.427 223.229 59.236L229 69.0787V69.5281C229 71.0112 227.782 72.2247 226.295 72.2247H223.59L218.045 61.9775C217.595 61.0787 216.648 60.5393 215.656 60.5393H214.574C213.087 60.5393 211.87 61.7528 211.87 63.236V70.427C211.87 71.9101 210.653 73.1236 209.165 73.1236C207.677 73.1236 206.46 71.9101 206.46 70.427V26.8315C206.46 25.3483 207.677 24.1348 209.165 24.1348C210.653 24.1348 211.87 25.3483 211.87 26.8315V52C211.87 53.4831 213.087 54.6966 214.574 54.6966H215.656C216.648 54.6966 217.595 54.1573 218.045 53.2584L223.635 42.6966L226.295 42.5618C227.782 42.5618 229 43.7753 229 45.2584V45.7079L223.184 56.5393Z" fill="black"/>
<path d="M245.949 72.9888L231.704 62.4719C230.532 61.573 230.217 59.9551 230.983 58.6966C231.885 57.3034 233.733 56.9888 235.04 57.9326L249.33 68.4944C250.502 69.3933 250.818 71.0112 250.051 72.2697C249.15 73.618 247.301 73.9775 245.949 72.9888Z" fill="#46BE2B"/>
<path d="M273.943 34.4719L271.193 38.0674C264.026 47.4607 257.715 57.4382 252.35 67.9551L250.277 72C249.555 73.3483 247.887 73.9326 246.535 73.2135L246.445 73.1686C245.048 72.4495 244.507 70.7865 245.228 69.4382L247.392 65.2135C252.891 54.5169 259.337 44.3596 266.64 34.7865L269.48 31.0562C270.292 29.9775 271.779 29.6629 272.951 30.2472C274.529 31.0562 274.98 33.0787 273.943 34.4719Z" fill="#46BE2B"/>
<path d="M80.2235 89H13.7282C7.83251 89 3 84.2676 3 78.3879V12.6121C3 6.78022 7.78418 2 13.7282 2H80.2718C86.1675 2 91 6.73242 91 12.6121V78.4357C90.9517 84.2676 86.1675 89 80.2235 89Z" stroke="black" stroke-width="5" stroke-miterlimit="10"/>
<path d="M41.6076 19.6404H13.9293V70.0674H41.6076V19.6404Z" fill="white" stroke="black" stroke-width="7" stroke-miterlimit="10"/>
<path d="M79.4286 19.8202H52.156V45.1685H79.4286V19.8202Z" fill="white" stroke="black" stroke-width="7" stroke-miterlimit="10"/>
<path d="M71.4947 47.3708H66.3558V72.809H71.4947V47.3708Z" fill="black"/>
<path d="M55.4016 47.4157H48.7751V72.8539H55.4016V47.4157Z" fill="black"/>
<path d="M71.4947 47.3708H64.8682V72.809H71.4947V47.3708Z" fill="black"/>
<path d="M82.0882 66.7416H71.4947V72.809H82.0882V66.7416Z" fill="black"/>
<path d="M71.4947 26.7416H60.0448V38.1573H71.4947V26.7416Z" fill="black"/>
<path d="M48.6849 72.8539H37.235V81.6629H48.6849V72.8539Z" fill="black"/>
<path d="M39.2184 55.7753H27.7684V67.191H39.2184V55.7753Z" fill="black"/>
</g>
<defs>
<clipPath id="clip0_2_52">
<rect width="278" height="92" fill="white"/>
</clipPath>
</defs>
</svg>
