<?xml version="1.0" encoding="utf-8"?>
<!-- Generator: Adobe Illustrator 19.0.0, SVG Export Plug-In . SVG Version: 6.00 Build 0)  -->
<svg version="1.1" id="Layer_1" xmlns="http://www.w3.org/2000/svg" xmlns:xlink="http://www.w3.org/1999/xlink" x="0px" y="0px"
	 viewBox="-11 138.3 616.7 204.7" style="enable-background:new -11 138.3 616.7 204.7;" xml:space="preserve">
<style type="text/css">
	.st0{fill:#FFFFFF;stroke:#000000;stroke-width:15;stroke-miterlimit:10;}
	.st1{fill:#FFFFFF;}
	.st2{fill:#00A393;}
	.st3{fill:none;stroke:#000000;stroke-width:5;stroke-miterlimit:10;}
	.st4{fill:#46BE2B;}
	.st5{fill:none;stroke:#000000;stroke-width:3;stroke-miterlimit:10;}
</style>
<path id="XMLID_2_" class="st0" d="M763.4,229.3h-39.9c-5.9,0-10.7-4.8-10.7-10.7v-90.8c0-5.9,4.8-10.7,10.7-10.7h39.9
	c5.9,0,10.7,4.8,10.7,10.7v90.8C774.1,224.5,769.3,229.3,763.4,229.3z"/>
<path id="XMLID_3_" class="st0" d="M848.4,174.7h-41.7c-5.2,0-9.4-4.2-9.4-9.4v-37.6c0-5.2,4.2-9.4,9.4-9.4h41.7
	c5.2,0,9.4,4.2,9.4,9.4v37.6C857.8,170.5,853.6,174.7,848.4,174.7z"/>
<path id="XMLID_7_" d="M804.7,168v59.9c0,4.1-3.3,7.4-7.4,7.4l0,0c-4.1,0-7.4-3.3-7.4-7.4V168c0-4.1,3.3-7.4,7.4-7.4l0,0
	C801.4,160.7,804.7,164,804.7,168z"/>
<path id="XMLID_18_" d="M833,235.3L833,235.3c-4.1,0-7.4-3.5-7.4-7.9v-44.8c0-4.4,3.3-7.9,7.4-7.9l0,0c4.1,0,7.4,3.5,7.4,7.9v44.9"
	/>
<path id="XMLID_8_" d="M832.4,221.8h24.7c3.7,0,6.7,3,6.7,6.7l0,0c0,3.7-3,6.7-6.7,6.7h-24.7c-3.7,0-6.7-3-6.7-6.7l0,0
	C825.7,224.9,828.7,221.8,832.4,221.8z"/>
<path id="XMLID_35_" d="M317.7,235.2v57c0,3-2.5,5.5-5.5,5.5h-2c-3,0-5.5-2.5-5.5-5.5v-43c0-3-2.5-5.5-5.5-5.5h-15
	c-3,0-5.5,2.5-5.5,5.5v43c0,3-2.5,5.5-5.5,5.5l0,0c-3,0-5.5-2.5-5.5-5.5v-97c0-3,2.5-5.5,5.5-5.5l0,0c3,0,5.5,2.5,5.5,5.5v29
	c0,3,2.5,5.5,5.5,5.5h28C315.2,229.7,317.7,232.1,317.7,235.2z"/>
<path id="XMLID_41_" d="M327.7,237.2v56c0,3.6,2.9,6.5,6.5,6.5h37c3.6,0,6.5-2.9,6.5-6.5l0,0c0-3.6-2.9-6.5-6.5-6.5h-25
	c-3.6,0-6.5-2.9-6.5-6.5v-2c0-3.6,2.9-6.5,6.5-6.5h25c3.6,0,6.5-2.9,6.5-6.5v-28c0-3.6-2.9-6.5-6.5-6.5h-37
	C330.6,230.7,327.7,233.6,327.7,237.2z M359.2,258.7h-13c-3.6,0-6.5-2.9-6.5-6.5v-1c0-3.6,2.9-6.5,6.5-6.5h13c3.6,0,6.5,2.9,6.5,6.5
	v1C365.7,255.8,362.8,258.7,359.2,258.7z"/>
<path id="XMLID_17_" d="M224.2,285.7h25c3.6,0,6.5,2.9,6.5,6.5l0,0c0,3.6-2.9,6.5-6.5,6.5h-31.5l0,0h-6.5c-3.6,0-6.5-2.9-6.5-6.5
	v-56c0-3.6,2.9-6.5,6.5-6.5h38c3.6,0,6.5,2.9,6.5,6.5v1c0,3.6-2.9,6.5-6.5,6.5h-25c-3.6,0-6.5,2.9-6.5,6.5v29
	C217.7,282.8,220.6,285.7,224.2,285.7z"/>
<path id="XMLID_16_" d="M409.2,287.7h24c3.6,0,6.5,2.9,6.5,6.5l0,0c0,3.6-2.9,6.5-6.5,6.5h-30.6l0,0h-6.4c-3.6,0-6.5-2.9-6.5-6.5
	v-56c0-3.6,2.9-6.5,6.5-6.5h37c3.6,0,6.5,2.9,6.5,6.5v1c0,3.6-2.9,6.5-6.5,6.5h-24c-3.6,0-6.5,2.9-6.5,6.5v29
	C402.7,284.8,405.6,287.7,409.2,287.7z"/>
<path id="XMLID_53_" d="M551.5,236.3c-1.3,2.1-3.6,3.3-5.9,3.3c-1.3,0-2.5-0.4-3.7-1.1l-1.7-1.1c-3.1-2-7.2-1-8.9,2.2l-13.8,25
	c-1.1,2-1,4.4,0.1,6.3c0,0-24.8,13.6-13.5-9.6l18.3-33.1c1.8-3.2,8.4-12.2,20.5-5.1l6.4,4.2C552.5,229,553.4,233.1,551.5,236.3z"/>
<rect id="XMLID_38_" x="222.3" y="289.2" class="st1" width="0" height="13"/>
<path id="XMLID_11_" d="M768.6,223.9h13.8c3.8,0,6.8,3.1,6.8,6.8v13.4c0,3.8-3.1,6.8-6.8,6.8h-13.8c-3.8,0-6.8-3.1-6.8-6.8v-13.4
	C761.8,227,764.8,223.9,768.6,223.9z"/>
<path id="XMLID_5_" d="M834.6,158.3h-13.9c-3.2,0-5.8-2.6-5.8-5.8v-13.9c0-3.2,2.6-5.8,5.8-5.8h13.9c3.2,0,5.8,2.6,5.8,5.8v13.9
	C840.4,155.7,837.8,158.3,834.6,158.3z"/>
<path id="XMLID_6_" d="M761.9,223.6h-12.2c-3.7,0-6.6-3-6.6-6.6v-12.2c0-3.7,3-6.6,6.6-6.6h12.2c3.7,0,6.6,3,6.6,6.6V217
	C768.5,220.7,765.5,223.6,761.9,223.6z"/>
<text id="XMLID_13_" transform="matrix(1 0 0 1 1253.6232 833.963)" style="font-family:'MicrosoftSansSerif'; font-size:110px;">check</text>
<path id="XMLID_12_" d="M1643,731.5c0,0-27.5,84.6-69.2,103.7c0,0-10.2-4.2-21.6-16.2c-14-14.8,4.9-33.9,4.9-33.9s20.9-22,31.8,4.7
	c0,0-10.1-14.5-26.1,1.4c-8,8-7.6,14.2-5.3,18.5c2.6,4.8,8.1,7.3,13.5,6.6c2.8-0.4,6.1-1.3,8.7-3.3
	C1590.5,805,1635.2,755.1,1643,731.5z"/>
<text id="XMLID_4_" transform="matrix(1 0 0 1 1082.9884 833.963)" style="font-family:'MicrosoftSansSerif'; font-size:110px;">QR</text>
<path id="XMLID_44_" d="M484.8,262.8c-1,1.9-1,4.2,0.1,6l12.8,21.9v1c0,3.3-2.7,6-6,6h-6l-12.3-22.8c-1-2-3.1-3.2-5.3-3.2h-2.4
	c-3.3,0-6,2.7-6,6v16c0,3.3-2.7,6-6,6l0,0c-3.3,0-6-2.7-6-6v-97c0-3.3,2.7-6,6-6l0,0c3.3,0,6,2.7,6,6v56c0,3.3,2.7,6,6,6h2.4
	c2.2,0,4.3-1.2,5.3-3.2l12.4-23.5l5.9-0.3c3.3,0,6,2.7,6,6v1L484.8,262.8z"/>
<path id="XMLID_15_" class="st2" d="M535.3,299.4L503.7,276c-2.6-2-3.3-5.6-1.6-8.4l0,0c2-3.1,6.1-3.8,9-1.7l31.7,23.5
	c2.6,2,3.3,5.6,1.6,8.4l0,0C542.4,300.8,538.3,301.6,535.3,299.4z"/>
<path id="XMLID_10_" class="st2" d="M597.4,213.7l-6.1,8c-15.9,20.9-29.9,43.1-41.8,66.5l-4.6,9c-1.6,3-5.3,4.3-8.3,2.7l-0.2-0.1
	c-3.1-1.6-4.3-5.3-2.7-8.3l4.8-9.4c12.2-23.8,26.5-46.4,42.7-67.7l6.3-8.3c1.8-2.4,5.1-3.1,7.7-1.8l0,0
	C598.7,206.1,599.7,210.6,597.4,213.7z"/>
<path id="XMLID_1_" class="st3" d="M162,329.4H24.4c-12.2,0-22.2-9.9-22.2-22.2V169.6c0-12.2,9.9-22.2,22.2-22.2h137.7
	c12.2,0,22.2,9.9,22.2,22.2v137.7C184.2,319.5,174.3,329.4,162,329.4z"/>
<rect id="XMLID_46_" x="703.7" y="314.6" class="st0" width="61.4" height="112.2"/>
<rect id="XMLID_45_" x="788.4" y="315" class="st0" width="60.5" height="56.4"/>
<rect id="XMLID_43_" x="820" y="376.3" width="11.4" height="56.6"/>
<rect id="XMLID_42_" x="780.9" y="376.4" width="14.7" height="56.6"/>
<rect id="XMLID_37_" x="816.6" y="376.3" width="14.7" height="56.6"/>
<rect id="XMLID_36_" x="831.4" y="419.4" width="23.5" height="13.5"/>
<polygon id="XMLID_34_" points="1003,357.3 1003,425.3 990,425.3 990,371.3 964,371.3 964,425.3 953,425.3 953,317.3 964,317.3 
	964,357.3 "/>
<path id="XMLID_31_" d="M1013,358.3v69h50v-13h-38v-15h38v-41H1013z M1051,386.3h-26v-14h26V386.3z"/>
<polygon id="XMLID_30_" points="903,413.3 941,413.3 941,426.3 903,426.3 903,426.3 890,426.3 890,357.3 941,357.3 941,371.3 
	903,371.3 "/>
<polygon id="XMLID_29_" points="1088,415.3 1125,415.3 1125,428.3 1087.9,428.3 1087.9,428.3 1075,428.3 1075,359.3 1125,359.3 
	1125,373.3 1088,373.3 "/>
<polygon id="XMLID_28_" points="1207.2,402.4 1239,424.6 1232.5,435.3 1200.8,413.2 1200.8,413.2 1189.9,405.6 1224.5,347.8 
	1267.1,377.6 1260.1,389.4 1228.4,367.2 "/>
<rect id="XMLID_27_" x="907.6" y="416.8" class="st1" width="0" height="13"/>
<rect id="XMLID_26_" x="757.8" y="432.9" width="23.5" height="13.6"/>
<rect id="XMLID_25_" x="805.9" y="330.4" width="25.4" height="25.4"/>
<rect id="XMLID_24_" x="734" y="395.8" width="25.4" height="25.4"/>
<rect id="XMLID_67_" x="20.6" y="180.7" class="st0" width="61.4" height="112.2"/>
<rect id="XMLID_66_" x="105.4" y="181.1" class="st0" width="60.5" height="56.4"/>
<rect id="XMLID_65_" x="136.9" y="242.4" width="11.4" height="56.6"/>
<rect id="XMLID_64_" x="97.9" y="242.5" width="14.7" height="56.6"/>
<rect id="XMLID_63_" x="133.6" y="242.4" width="14.7" height="56.6"/>
<rect id="XMLID_62_" x="148.3" y="285.5" width="23.5" height="13.5"/>
<rect id="XMLID_60_" x="122.9" y="196.5" width="25.4" height="25.4"/>
<rect id="XMLID_59_" x="72.3" y="299.1" width="25.4" height="19.6"/>
<rect id="XMLID_61_" x="51.3" y="261.1" width="25.4" height="25.4"/>
<polygon id="XMLID_23_" points="1183.3,366.3 1168.5,393.4 1183.4,418.3 1183,418.3 1183,425.3 1171,425.3 1171,425.6 1171.1,425.7 
	1157,399.3 1145,399.3 1145,427.3 1133,427.3 1133,318.3 1145,318.3 1145,386.3 1157,386.3 1171.1,359.5 1171,359.3 1171,359.3 
	1183,359.3 1183,366.3 "/>
<polygon id="XMLID_22_" class="st4" points="1232.5,435.3 1221.6,427.7 1276.2,336.7 1287.1,344.3 "/>
<polygon id="XMLID_20_" class="st4" points="1232.5,435.3 1189.8,405.6 1196.3,394.9 1238.9,424.6 "/>
<path id="XMLID_19_" class="st5" d="M855.2,266.3H717.5c-12.2,0-22.2-9.9-22.2-22.2V106.4c0-12.2,9.9-22.2,22.2-22.2h137.7
	c12.2,0,22.2,9.9,22.2,22.2v137.7C877.3,256.3,867.4,266.3,855.2,266.3z"/>
</svg>
